# Alias OBJ Model File
# Exported from SketchUp, (c) 2000-2012 Trimble Navigation Limited
# File units = millimeters

mtllib punto braille.mtl

g Mesh1 COMPONENT0 Model

usemtl FrontColor
v -2.61617 -0.63 3.18339
vt 0.0396733 -0.000621633
vn 0.258819 0 0.965926
v -2.83746 -0.63 3.21252
vt 0.0304234 -0.000621633
vn 0 0 1
v -2.83746 -1.2 3.21252
vt 0.0304234 -0.0242437
v -2.61617 -1.2 3.18339
vt 0.0396733 -0.0242437
f 1/1/1 2/2/2 3/3/2 4/4/1 

v -2.83746 -0.63 3.07002
vt 0.0306859 0.00590551
vn 0 1 -0
vt 0.0306859 0
vt 0.0398567 0.00120735
f 5/5/3 2/6/3 1/7/3

v -3.02187 -0.63 3.04575
vt 0.0230436 0.00691164
f 6/8/3 2/6/3 5/5/3

v -3.05875 -0.63 3.18339
vt 0.0215152 0.00120735
f 6/8/3 7/9/3 2/6/3

v -3.19371 -0.63 2.97457
vt 0.0159222 0.00986145
f 8/10/3 7/9/3 6/8/3

v -3.26496 -0.63 3.09798
vt 0.0129694 0.00474713
f 8/10/3 9/11/3 7/9/3

v -3.34127 -0.63 2.86134
vt 0.0098068 0.0145539
f 10/12/3 9/11/3 8/10/3

v -3.44204 -0.63 2.9621
vt 0.00563097 0.0103781
f 10/12/3 11/13/3 9/11/3

v -3.4545 -0.63 2.71377
vt 0.00511432 0.0206693
f 12/14/3 11/13/3 10/12/3

v -3.52568 -0.63 2.54193
vt 0.00216451 0.0277908
f 13/15/3 11/13/3 12/14/3

v -3.57791 -0.63 2.78502
vt 0 0.0177165
f 13/15/3 14/16/3 11/13/3

v -3.54996 -0.63 2.35752
vt 0.00115838 0.0354331
f 15/17/3 14/16/3 13/15/3

v -3.57791 -0.63 1.93002
vt 0 0.0531496
f 14/16/3 15/17/3 16/18/3

v -3.52568 -0.63 2.17312
vt 0.00216451 0.0430754
f 17/19/3 16/18/3 15/17/3

v -3.44204 -0.63 1.75295
vt 0.00563097 0.060488
f 16/18/3 17/19/3 18/20/3

v -3.4545 -0.63 2.00127
vt 0.00511432 0.0501969
f 18/20/3 17/19/3 19/21/3

v -3.52568 3.80348 2.17312
vt -0.0406248 0.183111
vn -0.965926 -2.48241e-19 -0.258819
v -3.4545 3.80348 2.00127
vt -0.048333 0.183111
vn -0.866025 -5.75382e-19 -0.5
vt -0.048333 -0.000621633
vt -0.0406248 -0.000621633
f 20/22/4 21/23/5 19/24/5 17/25/4 

vt -0.048333 0.103715
vn -0.541002 0.780869 -0.312348
vt -0.0406248 0.103715
vn -0.603409 0.780869 -0.161683
v -3.29627 3.99348 2.23459
vt -0.0419095 0.116254
v -3.24882 3.99348 2.12002
vt -0.0470483 0.116254
f 21/26/6 20/27/7 22/28/7 23/29/6 

vt -0.0429894 0.112282
v -3.54996 3.80348 2.35752
vt -0.0352811 0.112282
vn -0.624695 0.780869 1.39246e-17
v -3.31246 3.99348 2.35752
vt -0.0365658 0.124821
vt -0.0417047 0.124821
f 20/30/7 24/31/8 25/32/8 22/33/7 

vt -0.0352811 0.183111
vn -1 3.98718e-33 -0
vt -0.0429894 0.183111
vt -0.0429894 -0.000621633
vt -0.0352811 -0.000621633
f 24/34/9 20/35/4 17/36/4 15/37/9 

v -3.52568 3.80348 2.54193
vt -0.0272705 0.183111
vn -0.965926 2.48241e-19 0.258819
vt -0.0349787 0.183111
vt -0.0349787 -0.000621633
vt -0.0272705 -0.000621633
f 26/38/10 24/39/9 15/40/9 13/41/10 

vt -0.0349787 0.119481
vt -0.0272705 0.119481
vn -0.603409 0.780869 0.161683
v -3.29627 3.99348 2.48046
vt -0.0285552 0.13202
vt -0.033694 0.13202
f 24/42/8 26/43/11 27/44/11 25/45/8 

vt -0.024847 0.124821
v -3.4545 3.80348 2.71377
vt -0.0171388 0.124821
vn -0.541002 0.780869 0.312348
v -3.24882 3.99348 2.59502
vt -0.0184235 0.13736
vt -0.0235623 0.13736
f 26/46/11 28/47/12 29/48/12 27/49/11 

vt -0.0171388 0.183111
vn -0.866025 2.48241e-19 0.5
vt -0.024847 0.183111
vt -0.024847 -0.000621633
vt -0.0171388 -0.000621633
f 28/50/13 26/51/10 13/52/10 12/53/13 

v -3.34127 3.80348 2.86134
vt -0.00557641 0.183111
vn -0.707107 -3.27141e-19 0.707107
vt -0.0132846 0.183111
vt -0.0132846 -0.000621633
vt -0.00557641 -0.000621633
f 30/54/14 28/55/13 12/56/13 10/57/14 

vt -0.0132846 0.127938
vt -0.00557641 0.127938
vn -0.441726 0.780869 0.441726
v -3.17334 3.99348 2.6934
vt -0.00686112 0.140477
vt -0.0119999 0.140477
f 28/58/12 30/59/15 31/60/15 29/61/12 

vt -0.00107961 0.12862
v -3.19371 3.80348 2.97457
vt 0.00662863 0.12862
vn -0.312348 0.780869 0.541002
v -3.07496 3.99348 2.76889
vt 0.00534392 0.141159
vt 0.000205093 0.141159
f 30/62/15 32/63/16 33/64/16 31/65/15 

vt 0.00662863 -0.000621633
vn -0.5 -3.27141e-19 0.866025
vt 0.00662863 0.183111
vt -0.00107961 0.183111
vt -0.00107961 -0.000621633
f 8/66/17 32/67/17 30/68/14 10/69/14 

vt 0.0186446 -0.000621633
vn -0.258819 1.51428e-32 0.965926
v -3.02187 3.80348 3.04575
vt 0.0186446 0.183111
vt 0.0109363 0.183111
vt 0.0109363 -0.000621633
f 6/70/18 34/71/18 32/72/17 8/73/17 

vt 0.0296526 -0.000621633
vn -9.37835e-16 1.11556e-32 1
v -2.83746 3.80348 3.07002
vt 0.0296526 0.183111
vt 0.0219444 0.183111
vt 0.0219444 -0.000621633
f 5/74/19 35/75/19 34/76/18 6/77/18 

v -2.65305 -0.63 3.04575
vt 0.0389025 -0.000621633
vn 0.258819 2.18135e-32 0.965926
v -2.65305 3.80348 3.04575
vt 0.0389025 0.183111
vt 0.0311942 0.183111
vt 0.0311942 -0.000621633
f 36/78/20 37/79/20 35/80/19 5/81/19 

v -2.48121 -0.63 2.97457
vt 0.0457639 -0.000621633
vn 0.5 2.58007e-32 0.866025
v -2.48121 3.80348 2.97457
vt 0.0457639 0.183111
vt 0.0380556 0.183111
vt 0.0380556 -0.000621633
f 38/82/21 39/83/21 37/84/20 36/85/20 

v -2.33365 -0.63 2.86134
vt 0.0497692 -0.000621633
vn 0.707107 4.84691e-32 0.707107
v -2.33365 3.80348 2.86134
vt 0.0497692 0.183111
vt 0.042061 0.183111
vt 0.042061 -0.000621633
f 40/86/22 41/87/22 39/88/21 38/89/21 

vt 0.0429372 -0.000621633
v -2.22042 -0.63 2.71377
vt 0.0506455 -0.000621633
vn 0.866025 5.4314e-32 0.5
v -2.22042 3.80348 2.71377
vt 0.0506455 0.183111
vt 0.0429372 0.183111
f 40/90/22 42/91/23 43/92/23 41/93/22 

vt 0.0515651 0.0145539
v -2.23288 -0.63 2.9621
vt 0.0557409 0.0103781
vt 0.0562576 0.0206693
f 40/94/3 44/95/3 42/96/3

v -2.40996 -0.63 3.09798
vt 0.0484025 0.00474713
f 40/94/3 45/97/3 44/95/3

vt 0.0454497 0.00986145
f 38/98/3 45/97/3 40/94/3

f 38/98/3 1/7/3 45/97/3

vt 0.0383282 0.00691164
f 36/99/3 1/7/3 38/98/3

f 5/5/3 1/7/3 36/99/3

vt 0.0465347 -0.000621633
vn 0.5 0 0.866025
vt 0.0372848 -0.000621633
vt 0.0372848 -0.0242437
v -2.40996 -1.2 3.09798
vt 0.0465347 -0.0242437
f 45/100/24 1/101/1 4/102/1 46/103/24 

v -3.44204 -1.2 2.9621
vt -0.00563097 0.0103781
vn 0 -1 -0
v -3.57791 -1.2 2.78502
v -3.57791 -1.2 1.93002
v -3.44204 -1.2 1.75295
vt -0.00563097 0.060488
v -3.26496 -1.2 1.61707
vt -0.0129694 0.066119
v -3.05875 -1.2 1.53166
vt -0.0215152 0.0696588
v -2.83746 -1.2 1.50252
vt -0.0306859 0.0708661
v -2.61617 -1.2 1.53166
vt -0.0398567 0.0696588
v -2.40996 -1.2 1.61707
vt -0.0484025 0.066119
v -2.23288 -1.2 1.75295
vt -0.0557409 0.060488
v -2.09701 -1.2 1.93002
vt -0.0613719 0.0531496
v -2.09701 -1.2 2.78502
vt -0.0613719 0.0177165
v -2.23288 -1.2 2.9621
vt -0.0557409 0.0103781
vt -0.0484025 0.00474713
vt -0.0398567 0.00120735
vt -0.0306859 0
v -3.05875 -1.2 3.18339
vt -0.0215152 0.00120735
v -3.26496 -1.2 3.09798
vt -0.0129694 0.00474713
f 47/104/25 48/16/25 49/18/25 50/105/25 51/106/25 52/107/25 53/108/25 54/109/25 55/110/25 56/111/25 57/112/25 58/113/25 59/114/25 46/115/25 4/116/25 3/117/25 60/118/25 61/119/25 

vt -0.00480558 -0.000621633
vn -0.707107 0 0.707107
vt -0.0140555 -0.000621633
vn -0.94693 0 0.321439
vt -0.0140555 -0.0242437
vt -0.00480558 -0.0242437
f 11/120/26 14/121/27 48/122/27 47/123/26 

vt -0.0177165 -0.000621633
vt -0.0531496 -0.000621633
vn -1 0 -0
vt -0.0531496 -0.0242437
vt -0.0177165 -0.0242437
f 14/124/27 16/125/28 49/126/28 48/127/27 

vt -0.0421664 -0.000621633
vn -0.793353 0 -0.608761
vt -0.0514163 -0.000621633
vn -0.707107 0 -0.707107
vt -0.0514163 -0.0242437
vt -0.0421664 -0.0242437
f 16/128/29 18/129/30 50/130/30 49/131/29 

vt -0.0412901 -0.000621633
v -3.26496 -0.63 1.61707
vt -0.05054 -0.000621633
vn -0.5 0 -0.866025
vt -0.05054 -0.0242437
vt -0.0412901 -0.0242437
f 18/132/30 62/133/31 51/134/31 50/135/30 

v -3.34127 -0.63 1.85371
vt 0.0098068 0.0563122
vt 0.0129694 0.066119
f 18/20/3 63/136/3 62/137/3

f 18/20/3 19/21/3 63/136/3

vt -0.0429372 0.183111
v -3.34127 3.80348 1.85371
vt -0.0506455 0.183111
vn -0.707107 -3.27141e-19 -0.707107
vt -0.0506455 -0.000621633
vt -0.0429372 -0.000621633
f 21/138/5 64/139/32 63/140/32 19/141/5 

vt -0.0506455 0.0943639
vn -0.441726 0.780869 -0.441726
vt -0.0429372 0.0943639
vt -0.0442219 0.106903
v -3.17334 3.99348 2.02165
vt -0.0493608 0.106903
f 64/142/33 21/143/6 23/144/6 65/145/33 

vt 0.0167665 0.0215136
vt 0.0208434 0.0183853
v -2.9604 3.99348 2.81634
vt 0.0255911 0.0164188
v -2.83746 3.99348 2.83252
vt 0.0306859 0.015748
v -2.71452 3.99348 2.81634
vt 0.0357808 0.0164188
v -2.59996 3.99348 2.76889
vt 0.0405285 0.0183853
v -2.50158 3.99348 2.6934
vt 0.0446054 0.0215136
v -2.4261 3.99348 2.59502
vt 0.0477337 0.0255906
v -2.37865 3.99348 2.48046
vt 0.0497002 0.0303382
v -2.36246 3.99348 2.35752
vt 0.050371 0.0354331
v -2.37865 3.99348 2.23459
vt 0.0497002 0.0405279
v -2.4261 3.99348 2.12002
vt 0.0477337 0.0452756
v -2.50158 3.99348 2.02165
vt 0.0446054 0.0493525
v -2.59996 3.99348 1.94616
vt 0.0405285 0.0524808
v -2.71452 3.99348 1.89871
vt 0.0357808 0.0544474
v -2.83746 3.99348 1.88252
vt 0.0306859 0.0551181
v -2.9604 3.99348 1.89871
vt 0.0255911 0.0544474
v -3.07496 3.99348 1.94616
vt 0.0208434 0.0524808
vt 0.0167665 0.0493525
vt 0.0136382 0.0452756
vt 0.0116717 0.0405279
vt 0.0110009 0.0354331
vt 0.0116717 0.0303382
vt 0.0136382 0.0255906
f 31/146/3 33/147/3 66/148/3 67/149/3 68/150/3 69/151/3 70/152/3 71/153/3 72/154/3 73/155/3 74/156/3 75/157/3 76/158/3 77/159/3 78/160/3 79/161/3 80/162/3 81/163/3 65/164/3 23/165/3 22/166/3 25/167/3 27/168/3 29/169/3 

vt 0.0109363 0.12682
vt 0.0186446 0.12682
vn -0.161683 0.780869 0.603409
vt 0.0173599 0.139359
vt 0.012221 0.139359
f 32/170/16 34/171/34 66/172/34 33/173/16 

vt 0.0219444 0.122661
vt 0.0296526 0.122661
vn -6.40534e-16 0.780869 0.624695
vt 0.0283679 0.1352
vt 0.0232291 0.1352
f 34/174/34 35/175/35 67/176/35 66/177/34 

vt 0.0311942 0.116427
vt 0.0389025 0.116427
vn 0.161683 0.780869 0.603409
vt 0.0376178 0.128966
vt 0.0324789 0.128966
f 35/178/35 37/179/36 68/180/36 67/181/35 

vt 0.0380556 0.108542
vt 0.0457639 0.108542
vn 0.312348 0.780869 0.541002
vt 0.0444792 0.121081
vt 0.0393403 0.121081
f 37/182/36 39/183/37 69/184/37 68/185/36 

vt 0.042061 0.0995439
vt 0.0497692 0.0995439
vn 0.441726 0.780869 0.441726
vt 0.0484845 0.112083
vt 0.0433457 0.112083
f 39/186/37 41/187/38 70/188/38 69/189/37 

vt 0.0429372 0.0900454
vt 0.0506455 0.0900454
vn 0.541002 0.780869 0.312348
vt 0.0493608 0.102584
vt 0.0442219 0.102584
f 41/190/38 43/191/39 71/192/39 70/193/38 

vt 0.0406248 0.0806941
v -2.14924 3.80348 2.54193
vt 0.048333 0.0806941
vn 0.603409 0.780869 0.161683
vt 0.0470483 0.0932331
vt 0.0419095 0.0932331
f 43/194/39 82/195/40 72/196/40 71/197/39 

vt 0.0406248 -0.000621633
v -2.14924 -0.63 2.54193
vt 0.048333 -0.000621633
vn 0.965926 -2.24471e-32 0.258819
vt 0.048333 0.183111
vt 0.0406248 0.183111
f 42/198/23 83/199/41 82/200/41 43/201/23 

v -2.09701 -0.63 2.78502
vt 0.0613719 0.0177165
vt 0.0592074 0.0277908
f 42/96/3 84/202/3 83/203/3

f 42/96/3 44/95/3 84/202/3

vt 0.0514163 -0.000621633
vn 0.793353 0 0.608761
vt 0.0421664 -0.000621633
vn 0.707107 0 0.707107
vt 0.0421664 -0.0242437
vt 0.0514163 -0.0242437
f 84/204/42 44/205/43 59/206/43 58/207/42 

vt 0.05054 -0.000621633
vt 0.0412901 -0.000621633
vt 0.0412901 -0.0242437
vt 0.05054 -0.0242437
f 44/208/43 45/209/24 46/210/24 59/211/43 

v -2.09701 -0.63 1.93002
vt 0.0531496 -0.000621633
vn 0.94693 0 -0.321439
vt 0.0177165 -0.000621633
vn 1 0 7.83324e-16
vt 0.0177165 -0.0242437
vt 0.0531496 -0.0242437
f 85/212/44 84/213/45 58/214/45 57/215/44 

vt 0.0613719 0.0531496
v -2.12496 -0.63 2.35752
vt 0.0602135 0.0354331
f 85/216/3 86/217/3 84/202/3

v -2.14924 -0.63 2.17312
vt 0.0592074 0.0430754
f 85/216/3 87/218/3 86/217/3

v -2.22042 -0.63 2.00127
vt 0.0562576 0.0501969
f 85/216/3 88/219/3 87/218/3

v -2.23288 -0.63 1.75295
vt 0.0557409 0.060488
f 89/220/3 88/219/3 85/216/3

v -2.33365 -0.63 1.85371
vt 0.0515651 0.0563122
f 89/220/3 90/221/3 88/219/3

v -2.40996 -0.63 1.61707
vt 0.0484025 0.066119
f 91/222/3 90/221/3 89/220/3

v -2.48121 -0.63 1.74048
vt 0.0454497 0.0610047
f 91/222/3 92/223/3 90/221/3

v -2.61617 -0.63 1.53166
vt 0.0398567 0.0696588
f 93/224/3 92/223/3 91/222/3

v -2.65305 -0.63 1.6693
vt 0.0383282 0.0639545
f 93/224/3 94/225/3 92/223/3

v -2.83746 -0.63 1.50252
vt 0.0306859 0.0708661
f 95/226/3 94/225/3 93/224/3

v -2.83746 -0.63 1.64502
vt 0.0306859 0.0649606
f 95/226/3 96/227/3 94/225/3

v -3.02187 -0.63 1.6693
vt 0.0230436 0.0639545
f 95/226/3 97/228/3 96/227/3

v -3.05875 -0.63 1.53166
vt 0.0215152 0.0696588
f 98/229/3 97/228/3 95/226/3

v -3.19371 -0.63 1.74048
vt 0.0159222 0.0610047
f 98/229/3 99/230/3 97/228/3

f 62/137/3 99/230/3 98/229/3

f 62/137/3 63/136/3 99/230/3

vt -0.042061 -0.000621633
vt -0.042061 0.183111
v -3.19371 3.80348 1.74048
vt -0.0497692 0.183111
vn -0.5 -3.74905e-32 -0.866025
vt -0.0497692 -0.000621633
f 63/231/32 64/232/32 100/233/46 99/234/46 

vt -0.0497692 0.0848654
vn -0.312348 0.780869 -0.541002
vt -0.042061 0.0848654
vt -0.0433457 0.0974044
vt -0.0484845 0.0974044
f 100/235/47 64/236/33 65/237/33 81/238/47 

v -3.02187 3.80348 1.6693
vt -0.0457639 0.0758671
vn -0.161683 0.780869 -0.603409
vt -0.0380556 0.0758671
vt -0.0393403 0.0884061
vt -0.0444792 0.0884061
f 101/239/48 100/240/47 81/241/47 80/242/48 

vt -0.0380556 -0.000621633
vt -0.0380556 0.183111
vt -0.0457639 0.183111
vn -0.258819 -2.23477e-32 -0.965926
vt -0.0457639 -0.000621633
f 99/243/46 100/244/46 101/245/49 97/246/49 

vt -0.0311942 -0.000621633
vt -0.0311942 0.183111
v -2.83746 3.80348 1.64502
vt -0.0389025 0.183111
vn 0 0 -1
vt -0.0389025 -0.000621633
f 97/247/49 101/248/49 102/249/50 96/250/50 

vt -0.0389025 0.0679822
vn -9.67763e-16 0.780869 -0.624695
vt -0.0311942 0.0679822
vt -0.0324789 0.0805211
vt -0.0376178 0.0805211
f 102/251/51 101/252/48 80/253/48 79/254/51 

v -2.65305 3.80348 1.6693
vt -0.0296526 0.061748
vn 0.161683 0.780869 -0.603409
vt -0.0219444 0.061748
vt -0.0232291 0.0742869
vt -0.0283679 0.0742869
f 103/255/52 102/256/51 79/257/51 78/258/52 

vt -0.0219444 -0.000621633
vt -0.0219444 0.183111
vt -0.0296526 0.183111
vn 0.258819 -2.92537e-32 -0.965926
vt -0.0296526 -0.000621633
f 96/259/50 102/260/50 103/261/53 94/262/53 

vt -0.0109363 -0.000621633
vt -0.0109363 0.183111
v -2.48121 3.80348 1.74048
vt -0.0186446 0.183111
vn 0.5 2.30808e-32 -0.866025
vt -0.0186446 -0.000621633
f 94/263/53 103/264/53 104/265/54 92/266/54 

vt -0.0186446 0.0575894
vn 0.312348 0.780869 -0.541002
vt -0.0109363 0.0575894
vt -0.012221 0.0701283
vt -0.0173599 0.0701283
f 104/267/55 103/268/52 78/269/52 77/270/55 

v -2.33365 3.80348 1.85371
vt -0.00662863 0.0557897
vn 0.441726 0.780869 -0.441726
vt 0.00107961 0.0557897
vt -0.000205093 0.0683286
vt -0.00534392 0.0683286
f 105/271/56 104/272/55 77/273/55 76/274/56 

vt 0.00107961 -0.000621633
vt 0.00107961 0.183111
vt -0.00662863 0.183111
vn 0.707107 3.71917e-32 -0.707107
vt -0.00662863 -0.000621633
f 92/275/54 104/276/54 105/277/57 90/278/57 

vt 0.00557641 -0.000621633
vn 0.866025 -2.48241e-19 -0.5
vt 0.0132846 -0.000621633
vt 0.0132846 0.183111
v -2.22042 3.80348 2.00127
vt 0.00557641 0.183111
f 88/279/58 90/280/57 105/281/57 106/282/58 

vt 0.00557641 0.0564717
vn 0.541002 0.780869 -0.312348
vt 0.0132846 0.0564717
vt 0.0119999 0.0690106
vt 0.00686112 0.0690106
f 106/283/59 105/284/56 76/285/56 75/286/59 

v -2.14924 3.80348 2.17312
vt 0.0171388 0.0595888
vn 0.603409 0.780869 -0.161683
vt 0.024847 0.0595888
vt 0.0235623 0.0721277
vt 0.0184235 0.0721277
f 107/287/60 106/288/59 75/289/59 74/290/60 

vt 0.0171388 -0.000621633
vn 0.965926 -2.48241e-19 -0.258819
vt 0.024847 -0.000621633
vt 0.024847 0.183111
vt 0.0171388 0.183111
f 87/291/61 88/292/58 106/293/58 107/294/61 

vt 0.0272705 -0.000621633
vn 1 -5.65841e-32 -0
vt 0.0349787 -0.000621633
vt 0.0349787 0.183111
v -2.12496 3.80348 2.35752
vt 0.0272705 0.183111
f 86/295/62 87/296/61 107/297/61 108/298/62 

vt 0.0272705 0.0649286
vn 0.624695 0.780869 1.04435e-16
vt 0.0349787 0.0649286
vt 0.033694 0.0774675
vt 0.0285552 0.0774675
f 108/299/63 107/300/60 74/301/60 73/302/63 

vt 0.0352811 0.0721272
vt 0.0429894 0.0721272
vt 0.0417047 0.0846662
vt 0.0365658 0.0846662
f 82/303/40 108/304/63 73/305/63 72/306/40 

vt 0.0352811 -0.000621633
vt 0.0429894 -0.000621633
vt 0.0429894 0.183111
vt 0.0352811 0.183111
f 83/307/41 86/308/62 108/309/62 82/310/41 

f 83/203/3 84/202/3 86/217/3

vt -0.0372848 -0.000621633
vt -0.0465347 -0.000621633
vn -0.258819 0 -0.965926
vt -0.0465347 -0.0242437
vt -0.0372848 -0.0242437
f 62/311/31 98/312/64 52/313/64 51/314/31 

vt -0.0304234 -0.000621633
vt -0.0396733 -0.000621633
vn -3.91931e-16 0 -1
vt -0.0396733 -0.0242437
vt -0.0304234 -0.0242437
f 98/315/64 95/316/65 53/317/65 52/318/64 

vt -0.0211735 -0.000621633
vn 0.258819 0 -0.965926
vt -0.0211735 -0.0242437
f 95/319/65 93/315/66 54/318/66 53/320/65 

vt -0.0101655 -0.000621633
vt -0.0194154 -0.000621633
vn 0.5 0 -0.866025
vt -0.0194154 -0.0242437
vt -0.0101655 -0.0242437
f 93/321/66 91/322/67 55/323/67 54/324/66 

vt 0.00185044 -0.000621633
vt -0.00739945 -0.000621633
vn 0.707107 0 -0.707107
vt -0.00739945 -0.0242437
vt 0.00185044 -0.0242437
f 91/325/67 89/326/68 56/327/68 55/328/67 

vt 0.0140555 -0.000621633
vt 0.00480558 -0.000621633
vt 0.00480558 -0.0242437
vt 0.0140555 -0.0242437
f 89/329/68 85/330/44 57/331/44 56/332/68 

vt 0.00739945 -0.000621633
vn -0.5 0 0.866025
vt -0.00185044 -0.000621633
vt -0.00185044 -0.0242437
vt 0.00739945 -0.0242437
f 9/333/69 11/334/26 47/335/26 61/336/69 

vt 0.0194154 -0.000621633
vn -0.258819 0 0.965926
vt 0.0101655 -0.000621633
vt 0.0101655 -0.0242437
vt 0.0194154 -0.0242437
f 7/337/70 9/338/69 61/339/69 60/340/70 

vt 0.0211735 -0.000621633
vt 0.0211735 -0.0242437
f 2/2/2 7/341/70 60/342/70 3/3/2 

